{"title":"Your.Highness.[2011].DvdRip.XviD-KnÃƒÂ£","uid":6649114,"size":1566033920,"categoryP":"video","categoryS":"movies","magnet":"?xt=urn:btih:4dcaf7a6c5a91f551820cb1d91687eedb13badf9&amp;dn=Your.Highness.%5B2011%5D.DvdRip.XviD-Kn%C3%83%C2%A3&amp;tr=udp%3A%2F%2Ftracker.openbittorrent.com%3A80&amp;tr=udp%3A%2F%2Fopen.demonii.com%3A1337&amp;tr=udp%3A%2F%2Ftracker.coppersurfer.tk%3A6969&amp;tr=udp%3A%2F%2Fexodus.desync.com%3A6969","seeders":0,"leechers":0,"uploader":"Jon.Pson","files":-1,"time":1315065152,"description":"When Prince Fabious\\\\\\\\\\\\\\'s bride is kidnapped, he goes on a quest to rescue her... accompanied by his lazy useless brother Thadeous. \n\n\n\nGeneral\nComplete name                    : C:\\\\\\\\\\\\\\\\Mina Rips\\\\\\\\\\\\\\\\Your.Highness\\\\\\\\\\\\\\\\Your.Highness.[2011].DvdRip.XviD-KnÃƒÂ£\\\\\\\\\\\\\\\\Your.Highness.[2011].DvdRip.XviD-KnÃƒÂ£.avi\nFormat                           : AVI\nFormat/Info                      : Audio Video Interleave\nFile size                        : 1.46 GiB\nDuration                         : 1h 38mn\nOverall bit rate                 : 2 129 Kbps\nWriting application              : VirtualDubMod 1.5.4.1 (build 2178/release)\nWriting library                  : VirtualDubMod build 2178/release\n\nVideo\nID                               : 0\nFormat                           : MPEG-4 Visual\nFormat profile                   : Advanced Simple@L5\nFormat settings, BVOP            : 1\nFormat settings, QPel            : No\nFormat settings, GMC             : No warppoints\nFormat settings, Matrix          : Custom\nCodec ID                         : XVID\nCodec ID/Hint                    : XviD\nDuration                         : 1h 38mn\nBit rate                         : 1 738 Kbps\nWidth                            : 720 pixels\nHeight                           : 304 pixels\nDisplay aspect ratio             : 2.35:1\nFrame rate                       : 25.000 fps\nColor space                      : YUV\nChroma subsampling               : 4:2:0\nBit depth                        : 8 bits\nScan type                        : Progressive\nCompression mode                 : Lossy\nBits/(Pixel*Frame)               : 0.318\nStream size                      : 1.19 GiB (82%)\nWriting library                  : XviD 1.2.1 (UTC 2008-12-04)\n\nAudio\nID                               : 1\nFormat                           : AC-3\nFormat/Info                      : Audio Coding 3\nMode extension                   : CM (complete main)\nCodec ID                         : 2000\nDuration                         : 1h 38mn\nBit rate mode                    : Constant\nBit rate                         : 384 Kbps\nChannel(s)                       : 6 channels\nChannel positions                : Front: L C R, Side: L R, LFE\nSampling rate                    : 48.0 KHz\nBit depth                        : 16 bits\nCompression mode                 : Lossy\nDelay relative to video          : 15ms\nStream size                      : 269 MiB (18%)\nAlignment                        : Split accross interleaves\nInterleave, duration             : 96 ms (2.40 video frames)\nInterleave, preload duration     : 96 ms\nLanguage                         : English\n\n","torrent":{"xt":"urn:btih:4dcaf7a6c5a91f551820cb1d91687eedb13badf9","amp;dn":"Your.Highness.%5B2011%5D.DvdRip.XviD-Kn%C3%83%C2%A3","amp;tr":["udp%3A%2F%2Ftracker.openbittorrent.com%3A80","udp%3A%2F%2Fopen.demonii.com%3A1337","udp%3A%2F%2Ftracker.coppersurfer.tk%3A6969","udp%3A%2F%2Fexodus.desync.com%3A6969"],"infoHash":"4dcaf7a6c5a91f551820cb1d91687eedb13badf9","infoHashBuffer":{"type":"Buffer","data":[77,202,247,166,197,169,31,85,24,32,203,29,145,104,126,237,177,59,173,249]},"announce":[],"urlList":[]}}